<?xml version="1.0" encoding="UTF-8" standalone="no"?>
<svg id="0" xmlns:rdf="http://www.w3.org/1999/02/22-rdf-syntax-ns#" xmlns="http://www.w3.org/2000/svg" viewBox="0 0 200 88" version="1.0" xmlns:cc="http://creativecommons.org/ns#" xmlns:xlink="http://www.w3.org/1999/xlink" xmlns:dc="http://purl.org/dc/elements/1.1/">
 <g id="g3002" fill-rule="evenodd" transform="matrix(0.995 0 0 0.995 33.118 -75.82)">
  <path id="path3131-1" fill="#f60" d="m158.41 146.4c0 0.12399 0.12399 0.30998 0.43397 0.43397 0.24799 0.18599 0.49598 0.24799 0.68197 0.24799 0.68196 0 1.2399-0.86798 1.6739-2.5419 0.37198-1.4259 0.55796-2.6659 0.55796-3.7198 0-0.68197-0.062-1.3019-0.30998-1.8599-0.18599-0.49598-0.43397-0.80598-0.80599-0.80598-0.30998 0-0.80598 1.2399-1.3639 3.5958-0.55797 2.3559-0.86798 3.9058-0.86798 4.6498zm-13.329-7.1299c-0.86798 0-1.5499 1.3019-2.2319 3.8438-0.49597 2.1079-0.74398 4.0918-0.74398 6.0757 0 0.61996 0.062 1.1779 0.18599 1.5499 0.124 0.43397 0.37198 0.68196 0.80598 0.68196 0.86799 0 1.6119-1.5499 2.2939-4.7118 0.49597-2.5419 0.80598-4.7738 0.80598-6.5717 0-0.30998-0.12399-0.49597-0.37198-0.68196-0.24798-0.12399-0.49597-0.18599-0.74398-0.18599zm1.1159 11.903c-0.24799 0.18599-0.74399 0.86799-1.4879 1.8599-1.116 1.5499-2.1699 2.3559-3.1618 2.3559-1.2399 0-2.2319-0.86798-2.9758-2.6659-0.61997-1.4259-0.86799-2.7899-0.86799-4.2158 0-2.3559 0.43398-4.7118 1.2399-7.1299 1.1779-3.0998 2.6039-4.6498 4.4638-4.6498 0.74399 0 1.2399 0.062 1.4879 0.18599 0.43398 0.30998 0.80599 0.61997 1.2399 0.86798 0.24798-0.99198 0.37198-2.6659 0.49597-5.0218 0.062-0.74399 0.124-1.7979 0.18599-3.0998 0-0.18599-0.062-0.37198-0.12399-0.55797-0.062-0.062-0.124-0.18599-0.18599-0.30998-0.24799 0-0.30999-0.124-0.30999-0.37198 0-2.4799 7.4398-3.9678 5.7037 0.80599-0.86798 2.2939-0.92998 5.0218-1.2399 7.5018-0.55797 4.4018-0.86799 7.6258-0.86799 9.6098 0 0.99198 0.062 1.7359 0.18599 2.2939 0.24799 1.116 0.74399 1.7359 1.4879 1.7359 0.30999 0 0.68197-0.30998 1.178-0.92998 0.49597-0.61996 1.0539-1.3019 1.5499-1.9839 0.18599-5.2077 0.30999-11.035 7.0679-11.035 1.2399 0 2.2319 0.61997 3.0998 1.9839 0.74398 1.1779 1.116 2.4179 1.116 3.7198 0 1.4879-0.43398 2.9139-1.3019 4.2778-0.99198 1.6119-2.2319 2.4179-3.7818 2.4179-0.18599 0-0.49598 0-0.80599-0.062-0.30999-0.062-0.55797-0.124-0.74398-0.124-0.24799 0-0.43398 0.186-0.43398 0.55798 0 0.74398 0.24799 1.4879 0.68196 2.1079 0.43398 0.68196 1.054 0.99198 1.7359 0.99198 1.2399 0 2.6039-0.74399 4.1538-2.3559 0.68197-0.74398 1.3639-1.5499 2.0459-2.3559l0.18599 0.30998c-0.61997 3.7818-2.7899 7.9978-7.4398 7.9978-1.4259 0-2.7279-0.61997-3.9058-1.7979-1.116-1.178-1.6739-2.5419-1.6739-4.0298v-0.18599c-0.30998 0.92999-0.86799 1.7979-1.7359 2.5419-1.116 1.054-2.2939 1.5499-3.5338 1.5499-0.61997 0-1.1779-0.30998-1.7359-0.86798-0.49597-0.61997-0.86798-1.2399-0.99198-1.9219zm-10.477 1.7359c0 5.7037-7.8118 4.3398-5.5797-0.86798 0.68196-1.7359 5.5797-1.7979 5.5797 0.86798zm-16.057-6.5097c0 0.12399 0.124 0.30998 0.43398 0.43397 0.24798 0.18599 0.49597 0.24799 0.68196 0.24799 0.68197 0 1.2399-0.86798 1.6739-2.5419 0.37198-1.4259 0.55797-2.6659 0.55797-3.7198 0-0.68196-0.062-1.3019-0.30999-1.8599-0.18599-0.49598-0.43397-0.80598-0.80598-0.80598-0.30998 0-0.80599 1.2399-1.3639 3.5958-0.55796 2.3559-0.86798 3.9058-0.86798 4.6498zm-13.329-7.1299c-0.80598 0-1.5499 1.3019-2.1699 3.8438-0.55797 2.1079-0.80599 4.0918-0.80599 6.0757 0 0.61996 0.062 1.1779 0.18599 1.5499 0.124 0.43397 0.37199 0.68196 0.80599 0.68196 0.86798 0 1.6119-1.5499 2.2939-4.7118 0.49598-2.5419 0.80599-4.7738 0.80599-6.5717 0-0.30998-0.124-0.49597-0.37198-0.68196-0.24799-0.12399-0.49597-0.18599-0.74399-0.18599zm-9.5478-7.6878c-0.186 2.2939-2.9759 3.0378-4.4638 1.3639-3.7818-4.1538 4.7118-6.6957 4.4638-1.3639zm-13.329 19.653c-0.80598 1.5499-1.4259 2.5419-1.7359 2.9138-0.86798 1.116-1.8599 1.7359-2.8519 1.7359-1.0539 0-1.8599-0.68196-2.4799-1.9839-0.61997-1.3019-0.92998-2.6039-0.92998-3.8438 0-1.6739 0.124-3.2858 0.30999-4.6498 0.18598-1.4259 0.37197-2.8519 0.61996-4.4018-0.24799-0.24799-0.30998-0.43398-0.30998-0.55797v-1.2399c0-0.68197 0.062-1.3019 0.24798-1.7359 0.49597-1.1779 4.8978-1.3639 4.8978 0.99198l-0.18599 0.74399v0.49596c0 0.24799-0.062 0.43398-0.24799 0.55797-0.12399 0.30999-0.37198 1.7359-0.68197 4.1538-0.30998 2.4179-0.43397 4.0298-0.43397 4.8358 0 0.55797 0.062 1.2399 0.18599 1.9219 0.062 0.68197 0.30998 0.99198 0.61997 0.99198 0.92998 0 1.7359-1.7359 2.3559-5.1458 0.43398-2.4799 0.61997-4.5258 0.61997-6.1997 0-0.61997-0.062-1.054-0.18599-1.2399-0.124-0.124-0.124-0.24799-0.124-0.37198 0-0.24799 0.062-0.49598 0.186-0.80599 0.49597-1.3639 4.8358-0.37198 4.8358 1.7359 0 0.12399-0.062 0.24799-0.18599 0.37198-0.18599 0.124-0.30999 0.43398-0.30999 0.92998 0 0.12399-0.18599 1.3019-0.55797 3.5958-0.18599 0.99198-0.24799 2.1079-0.24799 3.2858 0 0.99198 0.062 1.7359 0.24799 2.2319 0.24799 0.55797 0.55797 0.80599 1.116 0.80599 0.61996 0 1.2399-0.55797 1.6739-1.6119 0.43397-0.92998 0.74398-1.4879 0.92998-1.6119 0-2.7899 0.18599-5.1458 0.43398-7.0059 0.062-0.68196 0.24798-1.4259 0.43397-2.2319 0.062-0.43398-0.12399-0.68196-0.43397-0.80598 0.062-0.24799 0.12399-0.49597 0.24798-0.80599 0.43397-1.054 5.2698-0.86798 5.2698 1.3019-0.43397 0.80598-0.74398 1.9219-1.116 3.2858-0.30998 1.3639-0.49598 3.0998-0.49598 5.2077 0 1.116 0.124 1.9219 0.30999 2.4179 0.18599 0.55797 0.49597 0.80598 0.92998 0.80598 0.43398 0 0.86798-0.30998 1.3639-0.92998 0.37198-0.61997 0.80599-1.2399 1.1779-1.7979 0.12399-2.0459 0.49597-4.1538 1.2399-6.1997 1.1779-3.0998 2.6659-4.6498 4.4638-4.6498 0.74398 0 1.2399 0.062 1.5499 0.18599 0.37198 0.30998 0.74398 0.61996 1.178 0.86798 0.24799-0.99198 0.43398-2.6659 0.49597-5.0218 0.062-0.74399 0.124-1.7979 0.18599-3.0998 0-0.18599-0.062-0.37198-0.12399-0.55797-0.062-0.062-0.12399-0.18599-0.18599-0.30998-0.24798 0-0.30998-0.124-0.30998-0.37198 0-2.4799 7.4398-3.9678 5.7037 0.80598-0.86799 2.2939-0.92999 5.0218-1.2399 7.5018-0.55797 4.4018-0.86798 7.6258-0.86798 9.6098 0 0.99198 0.062 1.7359 0.18599 2.2939 0.30998 1.116 0.74398 1.7359 1.4879 1.7359 0.30998 0 0.68196-0.30998 1.178-0.92998 0.49597-0.61996 1.0539-1.3019 1.5499-1.9839 0.18599-5.2077 0.30999-11.035 7.0679-11.035 1.2399 0 2.2319 0.61997 3.0998 1.9839 0.74399 1.1779 1.116 2.4179 1.116 3.7198 0 1.4879-0.43398 2.9139-1.2399 4.2778-1.054 1.6119-2.2939 2.4179-3.8438 2.4179-0.18599 0-0.49598 0-0.80599-0.062-0.30998-0.062-0.55797-0.124-0.68196-0.124-0.30999 0-0.49598 0.186-0.49598 0.55798 0 0.74398 0.24799 1.4879 0.68197 2.1079 0.43398 0.68196 1.054 0.99198 1.7359 0.99198 1.2399 0 2.6039-0.74399 4.1538-2.3559 0.68197-0.74398 1.3639-1.5499 2.0459-2.3559l0.18599 0.30998c-0.61996 3.7818-2.7899 7.9978-7.4398 7.9978-1.4259 0-2.7279-0.61997-3.8438-1.7979-1.178-1.178-1.7359-2.5419-1.7359-4.0298v-0.18599c-0.30998 0.92998-0.86798 1.7979-1.7359 2.5419-1.116 1.054-2.2939 1.5499-3.5338 1.5499-0.61996 0-1.1779-0.30998-1.7359-0.86798-0.49597-0.61997-0.86799-1.2399-0.99198-1.9219-0.24799 0.18599-0.74399 0.86798-1.4879 1.8599-1.116 1.5499-2.1699 2.3559-3.1618 2.3559-1.2399 0-2.2319-0.86799-2.9758-2.6659-0.37198-0.80599-0.61996-1.6739-0.74398-2.4799-0.49597 0.80598-1.054 1.4879-1.6739 2.1079-0.80598 0.74399-1.6739 1.1779-2.5419 1.1779-1.3019 0-2.2939-0.49597-2.9758-1.4879-0.30999-0.43398-0.49598-0.86798-0.68197-1.3639 0 0.37198-0.12399 0.61996-0.24799 0.74398-0.062 0.18599-0.61996 0.68196-1.6739 1.6119-1.2399 0.99198-2.1079 1.5499-2.6039 1.5499-0.80599 0-1.5499-0.37198-2.1079-1.054-0.37198-0.49597-0.74399-1.2399-1.1159-2.2939zm-9.6098-6.5717c0 2.3559-0.55796 4.5258-1.7359 6.5097-1.7359 2.8519-4.4018 4.3398-7.9358 4.3398-2.0459 0-3.9678-1.116-5.7037-3.2858-1.8599-2.2939-2.7899-5.0838-2.7899-8.3078 0-3.3478 0.61997-7.0059 1.8599-11.035 1.2399-3.7198 2.2319-5.8277 2.9758-6.1997 0.61997-0.30998 1.054-0.49598 1.4259-0.61997 1.2399-0.37198 2.5419-0.55797 3.9058-0.55797 5.7037 0 5.8277 1.3639 6.8817 6.0757 0.37198 1.5499 0.49597 2.7899 0.49597 3.5958 0 0.43398-0.24799 0.74399-0.80598 0.99198-1.2399 0.55797-1.6119 0.80599-2.9139 0.24799-0.86798-0.43398-1.3019-0.92999-1.3019-1.4259-0.124-1.3019-0.124-2.7279-0.24799-4.0918-0.062-0.68196-0.12399-1.1159-0.18599-1.3639-0.30999-0.92998-0.80598-1.3639-1.4879-1.3639-1.6119 0-3.0378 1.9219-4.1538 5.7657-0.92998 3.1618-1.3639 6.1997-1.3639 9.1138 0 2.2319 0.18599 4.1538 0.61997 5.7657 0.68197 2.4799 1.6739 3.7198 3.0998 3.7198 1.5499 0 2.7899-1.2399 3.7198-3.7198 0.37198-0.80599 0.68196-2.0459 1.054-3.7818 0.062-0.12399 0-0.24799-0.062-0.37198-0.124-0.12399-0.24799-0.18599-0.43398-0.12399-0.24798 0.12399-0.74398 0.24798-1.3639 0.30998-0.68197 0.062-1.5499 0.12399-2.6039 0.12399-0.24798-0.062-0.43397-0.30998-0.55797-0.55796-0.18599-0.49597 0.124-3.0378 0.124-3.7818 0-0.24799 0.062-0.37199 0.18599-0.37199 0.55797 0.124 1.3639 0.186 2.4179 0.186 0.86799 0 1.7979-0.062 2.8519-0.124s1.8599-0.12399 2.4799-0.18599c0.43398 0 0.74398 0 1.1159 0.12399 0.30998 0.062 0.49597 0.30999 0.61996 0.68197l0.49598 2.6659c0.062 0.43397-0.124 0.80598-0.68197 1.054zm-22.815 3.0378h-7.7498c-0.37198 0-0.61997-0.37198-0.61997-1.1779 0-0.74398 0.18599-1.5499 0.49598-2.2939 0.30998-0.80599 0.68196-1.1779 1.0539-1.1779h6.9439c0.37198 0 0.61997 0.18599 0.86798 0.55797 0.18599 0.37198 0.24799 0.86798 0.24799 1.4259 0 0.61997-0.124 1.2399-0.37198 1.7979-0.24799 0.61996-0.55798 0.86798-0.86798 0.86798zm-32.548-1.3019c0 0.12399 0.12399 0.30998 0.37198 0.43397 0.24798 0.18599 0.49597 0.24799 0.68196 0.24799 0.68197 0 1.2399-0.86798 1.7359-2.5419 0.37198-1.4259 0.55797-2.6659 0.55797-3.7198 0-0.68196-0.12399-1.3019-0.30998-1.8599-0.18599-0.49598-0.49598-0.80598-0.80598-0.80598-0.37199 0-0.86798 1.2399-1.4259 3.5958-0.55798 2.3559-0.80598 3.9058-0.80598 4.6498zm-0.92998-9.1758c1.116-0.55797 2.3559-0.80599 3.7818-0.80599 1.1779 0 2.2319 0.61997 3.0378 1.9839 0.74398 1.1779 1.1159 2.4179 1.1159 3.7198 0 1.4879-0.43398 2.9139-1.2399 4.2778-0.99198 1.6119-2.2939 2.4179-3.8438 2.4179-0.18599 0-0.43398 0-0.80598-0.062-0.30998-0.062-0.55797-0.12399-0.68196-0.12399-0.30998 0-0.43397 0.18599-0.43397 0.55797 0 0.74399 0.18599 1.4879 0.68196 2.1079 0.43398 0.68197 0.99198 0.99198 1.6739 0.99198 1.2399 0 2.6039-0.74398 4.1538-2.3559l1.8599-2.0459c0.186-3.3478 0.24799-5.1458 0.24799-5.4557 0-0.43398 0.062-0.99198 0.124-1.6739 0.12399-0.68196 0.18599-0.99198 0.18599-1.054-0.18599-0.24799-0.30999-0.43398-0.30999-0.61997 0-0.37198 0.24799-0.74399 0.74398-1.1159 0.61997-0.43398 3.2858-0.124 3.7818 0.55797 0.30999 0.49597 0.49598 0.86798 0.49598 1.1779 0 0.062-0.124 0.30998-0.30999 0.74398-0.18599 0.43397-0.43398 2.0459-0.80598 4.7738-0.37198 2.7279-0.55797 4.5258-0.55797 5.4557 0.74398-1.9839 1.4879-3.9058 2.2939-5.8897 0.92998-2.5419 1.4879-4.5258 1.6739-5.8897 0.062-0.24799 0.062-0.49597 0.062-0.68196 0-0.24799 0.062-0.37198 0.18599-0.43398 0.99198-0.43397 5.1458-3.1618 5.1458 0.61997-0.18599 0.24798-0.24799 0.43397-0.30999 0.49597-0.55797 2.2319-0.92998 3.8438-1.1159 4.7738-0.37198 1.6739-0.55797 3.3478-0.55797 5.0838 0 0.49597 0.12399 0.99198 0.37198 1.4259 0.24799 0.49597 0.61997 0.68196 1.054 0.68196 0.68196 0 1.2399-0.37198 1.7359-1.1159 0.49598-0.74398 0.86798-1.116 1.054-1.116 0.062 0.186 0.12399 0.37199 0.12399 0.49598 0 2.4179-2.3559 5.5797-4.9598 5.5797-1.116 0-1.9219-0.43398-2.4799-1.3639-0.61997-0.92998-0.86798-1.9839-0.86798-3.1618 0-0.49598 0-0.92998 0.062-1.3019 0.062-0.37198 0.18599-1.3019 0.43398-2.7899 0-0.30999-0.124-0.49598-0.24799-0.55797-0.18599 0-0.30999 0.18599-0.43398 0.61997-0.062 0.37197-0.18599 0.68195-0.24799 0.99198-0.61997 1.2399-1.1159 2.2319-1.4259 3.0998-0.74398 1.5499-1.1159 2.9138-1.1159 4.0298l0.18599 0.49597c0 0.30998-0.124 0.55797-0.37198 0.74398-0.68196 0.68196-3.4718 0.062-3.7818-0.80598-0.12399-0.43398-0.24799-0.86798-0.24799-1.4259 0-0.61997 0-1.2399 0.062-1.7979-0.61997 0.99198-2.2939 2.2319-3.2238 2.9759-1.2399 0.92998-2.4799 1.4259-3.7198 1.4259-1.4259 0-2.6659-0.61997-3.8438-1.7979-3.3478-3.4098-2.4799-14.817 1.6119-16.863zm-13.321 14.45c1.3019 0.80598 2.1079 0.61996 2.5419-1.116 0.43398-1.4259 0.61997-3.5338 0.61997-6.3237 0-0.99198-0.062-1.7359-0.18599-2.1079-0.124-0.37198-0.30999-0.55797-0.61997-0.61997-0.49598 0-0.92998 0.49598-1.3639 1.4879-0.49598 1.054-0.68197 1.8599-0.68197 2.5419 0 0.68196-0.062 1.4259-0.12399 2.2939-0.124 2.0459-0.186 3.3478-0.186 3.8438zm-10.973-8.0598c0.92998-1.3639 1.6119-2.9139 2.1079-4.5878 0.43398-1.6739 0.68197-3.4718 0.68197-5.2698 0-1.1779-0.062-2.4179-0.24799-3.5958-0.124-1.1779-0.37198-1.7359-0.80598-1.7359-0.30999 0-0.68197 1.8599-1.116 5.5797-0.37198 3.7198-0.61997 6.9439-0.61997 9.6098zm0 3.5958v0.49598c0 1.054 0.124 1.8599 0.37198 2.4799 0.37199 0.99198 0.92998 1.4259 1.7359 1.4259 0.86798 0 1.8599-0.68196 3.0378-2.1699 0.55797-0.74398 1.116-1.4879 1.7359-2.2319 0.43397-0.062 0.30998-3.4098 0.37198-4.4638 0.062-2.1079 0.062-4.5258 0.062-7.2539 0-0.124-0.062-0.24799-0.24798-0.30999-0.18599-0.12399-0.24799-0.24798-0.24799-0.30998 0-1.1779 3.5958-1.054 3.9678-0.99198 0.74398 0.24799 1.178 0.74399 1.3639 1.4259-0.18599 0.86798-0.37199 1.5499-0.43398 2.0459-0.30999 1.5499-0.43398 2.6659-0.43398 3.3478 0.55797-1.0539 0.99198-1.7359 1.3639-2.1079 0.61997-0.55797 1.3639-0.80598 2.2939-0.80598 1.4879 0 2.4799 0.74398 3.0998 2.1699 0.55797 1.1779 0.80598 2.8519 0.80598 5.0218 0 2.4179-0.49598 4.4638-1.3639 6.2617-1.116 2.2939-2.7899 3.4098-4.8978 3.4098-0.186 0-0.43398-0.062-0.74398-0.18599-1.4879-0.55797-1.2399 5.7037-0.86798 6.7577 0.186 0.43398 0.30999 0.74398 0.30999 0.92998 0 2.9139-3.9058-0.12399-4.2778-1.6739-0.18599-0.92998-0.30999-2.0459-0.30999-3.3478l0.124-2.8519c0.062-0.86798 0.062-1.7359 0.12399-2.6039v-1.3639c-0.24799 0.55797-0.80598 1.3019-1.6119 2.2319-1.4879 1.7359-2.9139 2.6039-4.2158 2.6039-2.0459 0-3.4718-0.80599-4.3398-2.4799-0.55797-1.2399-0.86798-2.9759-0.86798-5.2697 0-4.0298-0.18599-8.1838 0.30999-12.213 0.12399-1.1159 0.68196-8.3078 2.2319-9.0518 0.61997-0.30999 1.3019-0.43398 1.9839-0.43398 2.2319 0 3.7818 0.99198 4.5258 2.9758 0.43398 1.116 0.68196 2.9139 0.68196 5.2697 0 2.2319-0.55798 4.5258-1.7359 7.0059-0.92998 2.0459-2.2319 4.1538-3.9058 6.2617zm-12.585-5.7037v-10.911c0-0.43398-0.12399-0.86798-0.24799-1.1779-0.30998-0.43397-1.3019-0.55797-1.7979-0.80598-0.24799 0.55797-0.43398 1.3019-0.55797 2.1699-0.43398 3.3478-2.5419 8.6798-2.0459 11.779 0.12399 0.124 0.30998 0.18599 0.61997 0.18599 0.92998 0 4.0298 0 4.0298-1.2399zm4.8978-12.151c-0.18599 0.43397-0.30999 1.3639-0.37198 2.8519-0.124 1.5499-0.18599 3.5338-0.18599 5.9517v1.6119c0 1.054 0.062 1.8599 0.18599 2.4179 0.062 0.55796 0.30998 1.054 0.68196 1.4259 1.054-0.12399 1.7359 2.3559 0.186 2.6659-0.186 0.062-0.30999 0.12399-0.30999 0.18598 0 0.86799 0.24799 2.1079 0.68196 3.7818 0.24798 0.86798 0.55797 1.7979 0.80598 2.7279 0.24799 0.124 0.43398 0.24799 0.55797 0.30998 0.43398 0.24799 0.61997 0.49597 0.61997 0.74399 0 1.9219-4.2158 1.8599-5.3937 1.1779-0.80598-0.37198-1.1779-0.92998-1.1779-1.5499v-0.92998l-0.61997-4.7118c-0.062-0.49597-0.18599-0.74399-0.49597-0.74399 0 0-4.4638 0.18599-5.3317 0.18599-0.49598 0-1.1779 1.3019-2.0459 3.9058-0.86798 2.6039-1.7979 3.8438-2.7899 3.8438-0.43398 0-3.0998-0.49597-3.2238-0.68196-0.12399-0.12399-0.12399-0.37198-0.12399-0.61996 0-0.68197 0.37198-1.6119 1.1779-2.8519 4.3398-6.7577 5.1458-17.545 7.0059-25.295 0-0.124 0.18599-0.24799 0.55797-0.30999 1.4259-0.43398 9.6098 1.6119 9.6098 3.9058z"/>
  <path id="path12418" d="m-31.674 127.89 41.36-30.73c7.688 8.98 7.637 27.2 23.623 22.3 19.31-5.91 18.549-33.541 34.56-43.259 0.50748 12.154 0.32986 21.644 8.7287 31.007 3.6793-1.9792 7.0033-3.527 10.936-5.024 1.8016 5.6583 2.7658 10.454 3.6793 16.391 9.5661-2.309 14.945-7.8405 22.456-13.727 8.1451 15.706 18.325 21.009 31.266 21.111-0.63436 0.55822-1.015 1.2433-1.015 1.9792v0.27911c-11.824 0.50747-21.928-4.3643-30.581-21.694-3.201 4.6509-6.9799 12.894-16.691 20.28-1.8849-1.4224-3.7157-1.1552-5.6144 0.0599-2.8935-5.9778-2.7642-13.26-4.7941-21.431-4.1614 8.0688-5.8361 13.499-8.069 22.227l-3.8822-6.9524 3.8822-9.439c-12.104-9.3629-10.226-18.523-11.444-33.087-2.9942 8.2211-9.2362 22.024-7.46 30.854 2.1314 10.606-5.0241 3.5523-13.626 10.023 1.5478 1.015 5.2525 3.4508 5.9883 5.9121 0.71783 1.887-1.8241 3.532-3.4509 4.7702-18.675 11.72-31.793-13.68-40.624-25.98l-39.228 24.41zm184.8-2.64c4.136-0.4821 7.8872-1.1218 12.531-2.2129l0.60898 0.30448c-4.3136 1.3194-7.8365 2.3144-11.769 3.2025-0.3045-0.50748-0.76123-0.93883-1.3702-1.2941z" class="fil0" fill="#6da63c"/>
 </g>
</svg>
