<?xml version="1.0" encoding="UTF-8"?><svg id="Ebene_2" xmlns="http://www.w3.org/2000/svg" xmlns:xlink="http://www.w3.org/1999/xlink" viewBox="0 0 545.6 87.84"><defs><style>.cls-1{fill:none;}.cls-2{fill:#1d1d1b;}.cls-2,.cls-3{fill-rule:evenodd;}.cls-4{clip-path:url(#clippath-1);}.cls-3{fill:#00a6aa;}.cls-5{clip-path:url(#clippath);}</style><clipPath id="clippath"><rect class="cls-1" x="262.88" width="282.72" height="87.84"/></clipPath><clipPath id="clippath-1"><rect class="cls-1" y="19.98" width="251.54" height="67.86"/></clipPath></defs><g id="Ebene_1-2"><g class="cls-5"><path class="cls-3" d="M362.72,0h1.44c3.76.94,6.3,3.27,6.72,6.48.86,6.5-4.65,9.83-9.6,8.64-3.62-.87-6.68-5-5.28-9.84.75-2.6,2.48-4.17,6.72-5.28"/><path class="cls-3" d="M385.04,0h1.2c4.34.91,6.19,3.44,6.72,6,1.37,6.59-4.4,10.31-9.36,9.12-3.3-.79-6.81-4.38-5.28-9.84.75-2.7,2.76-4.29,6.72-5.28"/><path class="cls-3" d="M376.88,87.84h-4.8c-10.71-.69-19.28-4.64-24.96-10.32-5.35-5.35-10.66-14.26-10.08-24.72.58-10.42,5.76-18.05,11.52-23.04,6.48-5.62,14.99-8.88,25.92-8.88s19.26,3.19,25.68,8.88c6.17,5.46,10.98,12.47,11.52,23.28.49,9.89-4.3,19.16-9.84,24.48-5.64,5.41-14.57,9.8-24.96,10.32M366.08,35.52c-8.2,2.87-13.51,11.05-12.24,22.32,1.17,10.4,9.97,16.62,20.88,16.56,12.08-.07,21.62-8.6,20.4-22.56-1-11.5-10.26-18.56-23.28-17.28-2.02.2-4.28.44-5.76.96"/><path class="cls-3" d="M263.12,21.6c16.82.66,32.61-1.83,44.4,2.64,12.06,4.57,21.24,15.5,20.16,33.36-.72,11.82-6.6,19.58-14.88,24.24-8.59,4.84-20.29,5.6-34.08,5.04,7.76-17.28,15.82-34.26,23.76-51.36-2.01,1.54-3.41,3.73-5.04,5.76-4.84,6.04-9.87,12.43-14.88,18.72-6.69,8.4-12.98,17.19-19.68,24.72"/><path class="cls-3" d="M423.92,21.6c11.47.76,24.15-1.24,34.08.48,8.53,1.48,16.25,8.41,16.32,18.24.05,7.93-5.18,13.33-11.28,16.08,9.57,6.43,11.77,20.23,17.76,30.24-5.44.56-11.92.08-17.76.24-1.8-4.07-4.18-9.09-6.48-14.16-3.02-6.64-5.4-13.79-16.56-12.24v26.4h-16.32c.16-21.68-.32-44,.24-65.28M457.04,44.4c1.1-2.58.67-5.76-.24-7.44-2.36-4.35-10.01-3.25-16.56-3.36-.56,4.48-.08,10-.24,14.88,7.5.01,14.92.88,17.04-4.08"/><path class="cls-3" d="M488.96,21.6c11.6.71,23.91-1.17,33.6.48,9.75,1.66,16.87,9.09,16.56,18.96-.24,7.7-5.31,12.65-11.28,15.36,9.28,5.97,12.15,20.31,17.76,30.48h-17.76c-1.83-4.19-4.04-9.17-6.48-14.4-3-6.45-5.53-13.63-16.56-12v26.4h-16.08c.16-21.68-.32-44,.24-65.28M522.08,43.92c.61-1.68.77-3.72,0-6-1.82-5.37-9.58-4.24-17.04-4.32-.56,4.48-.08,10-.24,14.88,7.69.17,15.34.74,17.28-4.56"/></g><g class="cls-4"><path class="cls-2" d="M220.32,87.84h-8.88c-9.84-1.4-16.83-5.83-22.08-11.52-5.42-5.87-8.86-14.97-7.92-25.2.92-9.98,5.09-16.63,11.52-22.08,6.47-5.49,14.48-9.07,25.2-8.4,12.54.78,21.2,6.96,26.88,15.12,2.76,3.97,5.08,9.17,5.52,15.36.98,13.75-4.85,23.54-12.96,29.76-4.78,3.66-10.36,5.79-17.28,6.96M200.64,29.52c-8.04,4.73-14.79,14.48-13.68,28.08,1.18,14.43,13.46,24.9,27.84,25.44,12.32.46,24.39-6.97,28.56-18.48,3.1-8.56,1.49-19.1-2.4-25.44-4.95-8.08-15.02-14.7-29.04-13.2-4.78.51-8.28,1.83-11.28,3.6"/><path class="cls-2" d="M0,87.12v-.48c1.59-2.38,2.54-5.64,3.84-8.4,8.47-18.04,16.71-36.16,25.2-54.24.96-2.04,1.12-3.39,3.36-2.88,1.24.28.85.39,1.44,1.44.32.56.55,1.28.96,2.16,9.19,19.75,17.72,38.93,26.64,58.32.64,1.4,1.77,2.53,1.68,4.08h-5.28c-3-6.69-5.98-13.56-8.88-19.92-.41-.9-.91-1.99-1.68-2.64H15.84c-3.65,7.39-6.78,15.3-10.56,22.56H0ZM18,60c9.12-.16,18.88.32,27.6-.24-5.01-9.71-9.03-20.41-14.16-30-4.22,10.34-9.19,19.93-13.44,30.24"/><path class="cls-2" d="M99.12,87.84h-7.92c-13.65-1.97-21.89-11.7-23.28-25.44-1.19-11.75.38-26.1-.24-40.8,1.76.16,4.16-.32,5.52.24v36.48c0,15.02,8.31,26.14,24.48,24.72,11.92-1.05,18.83-10.21,19.68-21.84.84-11.58-.62-26.03,0-39.6,1.68.16,4-.32,5.28.24-.61,14.2.93,28.59-.24,40.32-1.48,14.79-9.68,23.49-23.28,25.68"/><path class="cls-2" d="M129.12,21.6h54.24v4.32h-24.24c-.56,19.84-.08,40.72-.24,60.96-1.33.39-4.19.39-5.52,0V25.92h-24.48v-3.6c-.02-.34-.04-.68.24-.72"/></g></g></svg>