<svg id="e030112b-ae19-41f9-a0ea-7616596b6609" data-name="SH.de blau" xmlns="http://www.w3.org/2000/svg" viewBox="0 0 200 88">
  <title>logo_SH_de_blau</title>
  <g>
    <path d="M136.5,70.9a.5.5,0,0,0,.3.4l.6.3c.6,0,1.1-.8,1.5-2.3a15.5,15.5,0,0,0,.5-3.4,8.8,8.8,0,0,0-.2-1.6c-.2-.4-.4-.7-.8-.7s-.7,1.1-1.2,3.2a22.1,22.1,0,0,0-.7,4.1m-23.9,0c0,.1.1.3.4.4l.6.3c.6,0,1.1-.8,1.5-2.3a15.5,15.5,0,0,0,.5-3.4,4.5,4.5,0,0,0-.3-1.6c-.2-.4-.4-.7-.7-.7s-.8,1.1-1.2,3.2a26.4,26.4,0,0,0-.8,4.1m-8.5.9c.1-.4.3-.9.4-1.4a8.6,8.6,0,0,0,.1-1.5,5.7,5.7,0,0,0-.8-3.2v1.1a9.7,9.7,0,0,0-.1,1.7,10.3,10.3,0,0,0,.1,1.9,3.9,3.9,0,0,0,.3,1.4m-.7,2.6a7.3,7.3,0,0,1-1.1-2.7,14.8,14.8,0,0,1-.6-3.8,6.2,6.2,0,0,1,.1-1.3,4.1,4.1,0,0,1,.1-.9v-.2c0-.3-.1-.3-.2-.3s-.7.9-1,2.7a32.5,32.5,0,0,0-.4,5.1,11.4,11.4,0,0,0,.3,2.8c.2.7.4,1,.8,1a1.4,1.4,0,0,0,1.1-.4c0-.1.4-.8.9-2m-27-3.5c0,.1.1.3.4.4l.6.3c.6,0,1.1-.8,1.5-2.3a15.5,15.5,0,0,0,.5-3.4,4.5,4.5,0,0,0-.3-1.6c-.2-.4-.4-.7-.7-.7s-.8,1.1-1.2,3.2a26.4,26.4,0,0,0-.8,4.1m-11.1,0a.4.4,0,0,0,.3.4l.6.3c.6,0,1.1-.8,1.5-2.3a11.2,11.2,0,0,0,.5-3.4,4.5,4.5,0,0,0-.3-1.6.8.8,0,0,0-.7-.7c-.3,0-.7,1.1-1.2,3.2a22.1,22.1,0,0,0-.7,4.1m-31.6-1-1.8.3c-.5,0-.8-.4-1-1.1a8.5,8.5,0,0,1-.3-2.5V64.7c-.2-.3-.3-.5-.4-.5s-.3.2-.4.5-.5,2.2-.7,2.9a27,27,0,0,0-.6,4.7,7.5,7.5,0,0,0,.4,2.4c.4.9,1,1.5,1.8,1.5A3.5,3.5,0,0,0,33.1,75l2.2-2.2c0-3.2.1-6,.1-8.4.3-4.7-1.4-11.2,3.6-11.7.3,0,.6.4,1,.9s-.4,5.6-.7,7.7a81.2,81.2,0,0,0-.6,11c.5-1.3,1.1-2.6,1.7-4.2a18.2,18.2,0,0,0,1.1-4.2v-.7c0-.3.3-.5.8-.7s2.9-.4,3.5.6a5.1,5.1,0,0,1,.4,1.1,3.8,3.8,0,0,1-.4,1.3,6.1,6.1,0,0,0-1,3.5c-.1,1.5-.2,2.7-.2,3.4a2.5,2.5,0,0,0,.4,1.4c.2.4.4.6.7.6s.6-.4,1.3-1.3.9-1.4,1.1-1.4h0c.1-1.3-.2-7.4.9-8.2s2.9-.1,3.3.5a1.9,1.9,0,0,1,.5,1,1.5,1.5,0,0,1-.3.6,39.3,39.3,0,0,0-.7,4.3,31.3,31.3,0,0,0-.5,4.8c.7-1.8,1.4-3.5,2-5.2a24.1,24.1,0,0,0,1.5-5.2,2,2,0,0,1,.1-.7c0-.1.1-.3.2-.3s4.4-2.8,4.4.6-1.7,6.6-1.7,9.1a2,2,0,0,0,.4,1.3,1,1,0,0,0,.9.6,1.9,1.9,0,0,0,1.5-1c.4-.6.7-1,.9-1,.1-2.4.2-4.2.4-5.6.7-3.8,1.7-5.2,5.9-5.2a3.1,3.1,0,0,1,2.7,1.8,5.5,5.5,0,0,1,1,3.2,6.6,6.6,0,0,1-1.2,3.8A3.7,3.7,0,0,1,67,73.1H65.6c-.2,0-.3.2-.3.5a3.3,3.3,0,0,0,.6,1.9,1.8,1.8,0,0,0,1.5.9c1.1,0,2.3-.7,3.6-2.2s1.1-1.2,1.7-1.8a30.1,30.1,0,0,1,.4-4.9c.7-3.8,1.7-5.2,5.9-5.2a3.3,3.3,0,0,1,2.7,1.8,6.2,6.2,0,0,1,.9,3.2,7.3,7.3,0,0,1-1.1,3.8,3.8,3.8,0,0,1-3.3,2.2H76.8c-.3,0-.4.2-.4.5a3.3,3.3,0,0,0,.6,1.9,1.8,1.8,0,0,0,1.6.9c1,0,2.3-.7,3.6-2.2l1.5-1.6c0-3,0-5.7.1-8,.3-4.7-1.3-11.2,3.7-11.7.2,0,.5.4.9.9s-.4,5.6-.7,7.7a81.2,81.2,0,0,0-.6,11c.5-1.3,1.1-2.6,1.7-4.2a18.2,18.2,0,0,0,1.1-4.2v-.7c0-.3.3-.5.8-.7s3-.4,3.5.6a2.4,2.4,0,0,1,.4,1.1,2,2,0,0,1-.5,1.3,7.1,7.1,0,0,0-.9,3.5,24.5,24.5,0,0,0-.2,3.4,3.7,3.7,0,0,0,.4,1.4c.2.4.4.6.7.6s.7-.4,1.3-1.3,1-1.4,1.1-1.4h0a11.1,11.1,0,0,0,.2-1.7,16.8,16.8,0,0,1,.6-3.6c.3-1.2.6-2,.7-2.4s.5-1,1-1c2.4.3,5.2-1.7,6.7,1.1a7.4,7.4,0,0,1,.7,3.6,13.8,13.8,0,0,1-.3,2.6c-.2,1.1-.4,2.2-.7,3.3s.3.7.8.8h.8a1.7,1.7,0,0,0,1.3-.8,2.5,2.5,0,0,1,.5-.7,36,36,0,0,1,.5-5.6c.7-3.8,1.7-5.2,5.8-5.2a3.1,3.1,0,0,1,2.7,1.8,5.5,5.5,0,0,1,1,3.2,7.3,7.3,0,0,1-1.1,3.8,3.8,3.8,0,0,1-3.4,2.2H113c-.3,0-.4.2-.4.5a3.3,3.3,0,0,0,.6,1.9,1.8,1.8,0,0,0,1.5.9c1.1,0,2.3-.7,3.7-2.2s.9-1.1,1.5-1.6c0-3,0-5.7.1-8,.3-4.7-1.3-11.2,3.6-11.7.3,0,.6.4,1,.9s-.4,5.6-.7,7.7a81.2,81.2,0,0,0-.6,11c.5-1.3,1.1-2.6,1.7-4.2a18.2,18.2,0,0,0,1.1-4.2v-.7c0-.3.3-.5.8-.7s3-.4,3.5.6a2.4,2.4,0,0,1,.4,1.1,2,2,0,0,1-.5,1.3,7.1,7.1,0,0,0-.9,3.5c-.1,1.5-.2,2.7-.2,3.4a2.5,2.5,0,0,0,.4,1.4c.2.4.4.6.7.6s.6-.4,1.3-1.3,1-1.4,1.1-1.4h0a41.9,41.9,0,0,1,.4-4.4c.7-3.8,1.8-5.2,5.9-5.2a3.2,3.2,0,0,1,2.7,1.8,6.3,6.3,0,0,1,1,3.2,7.3,7.3,0,0,1-1.1,3.8,3.8,3.8,0,0,1-3.4,2.2h-1.3c-.3,0-.4.2-.4.5a3.2,3.2,0,0,0,.5,1.9,1.9,1.9,0,0,0,1.6.9c1.1,0,2.3-.7,3.7-2.2l1.6-1.8c.1-2.9.2-4.5.2-4.8V64.5c0-1.7,3.4-1.4,4-.5a2.6,2.6,0,0,1,.4,1,1,1,0,0,1-.2.6,19.5,19.5,0,0,0-.8,4.3,43.6,43.6,0,0,0-.4,4.8c.6-1.8,1.3-3.5,2-5.2a31.9,31.9,0,0,0,1.5-5.2v-.7c0-.1.1-.3.2-.3s4.5-2.8,4.5.6a.8.8,0,0,0-.2.4c-.5,2-.8,3.4-1.1,4.2a22.2,22.2,0,0,0-.4,4.5,2.8,2.8,0,0,0,.3,1.3c.3.4.5.6.9.6a2.2,2.2,0,0,0,1.6-1c.4-.7.7-1,.9-1a.8.8,0,0,1,.1.4v1.4a5.9,5.9,0,0,0-.4.8,1.9,1.9,0,0,1-.7.8l-1.1,1a4.6,4.6,0,0,1-2.2,1,2.5,2.5,0,0,1-2.2-1.2,5.1,5.1,0,0,1-.7-2.8V73.1c0-.3.2-1.1.4-2.5s-.1-.4-.2-.4-.3.2-.4.5a2.9,2.9,0,0,0-.2.9l-1.3,2.7a9,9,0,0,0-.9,3.6v.4a.9.9,0,0,1-.3.7.9.9,0,0,1-.6.3,2.4,2.4,0,0,1-1.4-.3l-.6-.2a.8.8,0,0,1-.8-.5,5.3,5.3,0,0,1-.1-1.3V75.4a4,4,0,0,1-1.7,1.4,4.5,4.5,0,0,1-1.2,1.2,4.9,4.9,0,0,1-3.2,1.3,5.1,5.1,0,0,1-3.5-1.6,4.6,4.6,0,0,1-1.5-3.4,9.1,9.1,0,0,1-2,2.1,4.3,4.3,0,0,1-2.1.9,2.5,2.5,0,0,1-2.3-1.3,5.2,5.2,0,0,1-.7-2.9,14.3,14.3,0,0,1,.5-2.8v-.9c-.2,0-.5.8-1,2.3a38,38,0,0,0-1.2,3.7c-.1.8-.1,1.3-.2,1.7s-.7,2-1.5,2-1.1-.4-1.6-1.2a4.4,4.4,0,0,1-.7-2.4,4.2,4.2,0,0,1-1.6,1.3A4.6,4.6,0,0,1,117,78a4.5,4.5,0,0,1-6.6-.3,5.4,5.4,0,0,1-1.5-2.6c-.1.3-.4.5-.6.7a3.7,3.7,0,0,1-1.7.5l-.9-.2-.9-.6a8.3,8.3,0,0,1-1.5,2.4,3.5,3.5,0,0,1-2.5,1.2,3.7,3.7,0,0,1-3.5-1.7,5.7,5.7,0,0,1-.8-3.1c-.2.6-.9,1.2-2,2.1a4.3,4.3,0,0,1-2.1.9A2.2,2.2,0,0,1,90.2,76a4.5,4.5,0,0,1-.8-2.9,14.3,14.3,0,0,1,.5-2.8v-.9c-.2,0-.5.8-1,2.3a38,38,0,0,0-1.2,3.7c-.1.8-.1,1.3-.2,1.7s-.7,2-1.5,2-1.1-.4-1.6-1.2a4.4,4.4,0,0,1-.7-2.4,4.2,4.2,0,0,1-1.6,1.3A6.6,6.6,0,0,1,80.9,78a5.1,5.1,0,0,1-3.3,1.3,4.7,4.7,0,0,1-3.4-1.6,4.5,4.5,0,0,1-1.4-2.6A4.2,4.2,0,0,1,71,76.8,4.6,4.6,0,0,1,69.7,78a5.1,5.1,0,0,1-3.3,1.3,4.5,4.5,0,0,1-3.3-1.6,4.6,4.6,0,0,1-1.5-2.8,2.1,2.1,0,0,0-.4.6,1.9,1.9,0,0,1-.7.8l-1.1,1a4.3,4.3,0,0,1-2.1,1,2.4,2.4,0,0,1-2.2-1.2,5.1,5.1,0,0,1-.8-2.8,4.9,4.9,0,0,1,.1-1.2c0-.3.2-1.1.3-2.5s0-.4-.1-.4-.3.2-.5.5a2.9,2.9,0,0,1-.2.9,25.7,25.7,0,0,0-1.2,2.7,7.9,7.9,0,0,0-1,3.6l.2.4a1,1,0,0,1-.4.7c-.6.6-3,0-3.3-.7A5.1,5.1,0,0,1,48,77V74.5a9.3,9.3,0,0,1-2,1.9,3.5,3.5,0,0,1-2,.9A2.5,2.5,0,0,1,41.7,76a5.2,5.2,0,0,1-.7-2.9,14.3,14.3,0,0,1,.5-2.8v-.9c-.2,0-.5.8-1,2.3l-1.2,3.7c-.1.8-.1,1.3-.2,1.7s-.7,2-1.6,2-1-.4-1.5-1.2a4.5,4.5,0,0,1-.7-2.5h0a11.2,11.2,0,0,1-1.8,2.1,7.4,7.4,0,0,1-4.3,1.9,3.9,3.9,0,0,1-3-1.7,5.9,5.9,0,0,1-1.4-3.7,33.5,33.5,0,0,1,.9-6.7c.9-3.7,1.2-4.9,5.5-4.9,2.3,0,2.8,1.9,2.8,3.6v1.9c.1.4.1.9.2,1.5a.7.7,0,0,1-.5.7ZM22.9,59.6c0,.6-2.3,1.6-2.7,1.6s-1.7-.8-2.2-2.7-.3-1.5-.4-2.7-.3-.6-.6-.6H15.9a2.8,2.8,0,0,0-2.2,1.2,4.5,4.5,0,0,0-.9,2.6c0,1.4.9,2.7,2.9,4.1L21,66.6c1.9,1.6,2.9,3.2,2.9,5a7.2,7.2,0,0,1-2.4,5.2,7.3,7.3,0,0,1-5.1,2.3,9.2,9.2,0,0,1-5.7-1.8,5.2,5.2,0,0,1-2.4-4.1c0-3.8,2.3-1.4,3.2-.2a6.3,6.3,0,0,0,5,2.1,5.6,5.6,0,0,0,2.3-.3,1.8,1.8,0,0,0,1.2-2c0-1-.9-2.1-2.8-3.4a39.1,39.1,0,0,1-5.4-3.8,7.9,7.9,0,0,1-3-5.9,6.2,6.2,0,0,1,2.5-5.3A9.1,9.1,0,0,1,17,52.5c4.7,0,4.8,3.6,5.9,7.1ZM173.3,75.1a7.7,7.7,0,0,0-1.3,1.7c-1,1.4-1.9,2.1-2.8,2.1s-2-.9-2.6-2.3a9.2,9.2,0,0,1-.9-3.8,21.2,21.2,0,0,1,1.2-6.4c1-2.7,2.3-4,4-4h1.3l1,.8a28.3,28.3,0,0,0,.5-4.4c0-.7.1-1.6.1-2.8a1.1,1.1,0,0,0-.1-.5.3.3,0,0,1-.1-.2c-.2,0-.3-.2-.3-.4,0-2.6,6.4-3,5,.7-.8,2.1-.8,4.5-1.1,6.7a71.8,71.8,0,0,0-.7,8.5,5.9,5.9,0,0,0,.2,2q.3,1.5,1.2,1.5c.3,0,.7-.3,1.1-.8a14.1,14.1,0,0,0,1.4-1.8,44.1,44.1,0,0,1,.4-4.5c.6-3.5,2.1-5.2,5.9-5.2a3.3,3.3,0,0,1,2.7,1.8,6.2,6.2,0,0,1,.9,3.2,7.3,7.3,0,0,1-1.1,3.8,3.8,3.8,0,0,1-3.3,2.2h-1.4c-.3,0-.4.2-.4.5a3.3,3.3,0,0,0,.6,1.9,1.8,1.8,0,0,0,1.6.9c1,0,2.3-.7,3.6-2.2l1.8-2,.2.2c-.5,3.4-2.5,7.1-6.6,7.1a4.7,4.7,0,0,1-3.4-1.6,5,5,0,0,1-1.6-3.6h0a4.6,4.6,0,0,1-1.5,2.3,4.8,4.8,0,0,1-3.1,1.3,1.9,1.9,0,0,1-1.5-.8,2.8,2.8,0,0,1-.9-1.7Zm-.9-10.5c-.9,0-1.5,1.2-2.1,3.4a25.5,25.5,0,0,0-.6,5.4c0,.5.1,1,.1,1.4s.4.5.8.5,1.4-1.3,2-4.1a36,36,0,0,0,.7-5.8.6.6,0,0,0-.3-.6l-.6-.2m11.7,6.3c0,.1.1.3.4.4l.6.3c.6,0,1.1-.8,1.5-2.3a15.5,15.5,0,0,0,.5-3.4,4.5,4.5,0,0,0-.3-1.6c-.2-.4-.4-.7-.7-.7s-.8,1.1-1.2,3.2a26.4,26.4,0,0,0-.8,4.1m-19.8,5.5c0,5.4-7.3,4.1-5.2-.8.7-1.5,5.2-1.6,5.2.8" style="fill: #069"/>
    <path d="M7,53.8,45.6,25c7.2,8.4,7.1,25.5,22.1,20.9C85.7,40.4,85,14.5,100,5.5c.4,11.3.3,20.2,8.1,28.9a103.8,103.8,0,0,1,10.2-4.7,98.4,98.4,0,0,1,3.5,15.4c8.9-2.2,13.9-7.4,21-12.9,7.6,14.7,17,19.7,29.1,19.8a2.3,2.3,0,0,0-.9,1.8v.3c-11.1.4-20.5-4.1-28.6-20.3-5.3,9-8.3,13.6-16.1,18.3a5.2,5.2,0,0,0-1-1.1c-1.7-1.3-3.6-.5-5.2.6-3.2-5.5-1.1-11.2-3-18.8-3.9,7.5-5.4,12.6-7.5,20.7L106,47l3.6-8.8C98.3,29.5,100,20.9,98.9,7.3c-2.8,7.7-8.6,20.6-7,28.8,2,9.9-4.7,3.4-12.7,9.4,1.4,1,4.9,3.2,5.6,5.5A5.5,5.5,0,0,0,82,53.8a8.5,8.5,0,0,0-.4,1.7c-17.5,10.9-29.7-12.8-38-24.3L7,54v-.2Z" style="fill: #08a2bb"/>
    <path d="M179.1,51.5a103.3,103.3,0,0,0,12.2-2.3l.6.3c-4,1.2-7.9,2.4-11.6,3.2a2.8,2.8,0,0,0-1.2-1.2Z" style="fill: #08a2bb"/>
  </g>
  <rect width="200" height="88" style="fill: none"/>
</svg>
