<svg width="500" height="500" viewBox="0 0 500 500" fill="none" xmlns="http://www.w3.org/2000/svg">
<path d="M250 500C388.071 500 500 388.071 500 250C500 111.929 388.071 0 250 0C111.929 0 0 111.929 0 250C0 388.071 111.929 500 250 500Z" fill="#248567"/>
<path fill-rule="evenodd" clip-rule="evenodd" d="M362.316 186.964L361.048 187.596C350.909 179.22 337.76 173.846 320.968 173.846C299.422 173.846 279.62 181.59 266.471 197.237L286.907 218.89C297.046 209.249 307.819 203.875 321.601 203.875C347.424 204.508 364.058 224.264 364.058 250.816C364.058 277.368 346.632 297.757 320.334 297.757C254.431 297.757 272.966 174.004 184.409 174.004C140.051 174.004 109 207.036 109 250.974V385H140.684V313.404L141.952 312.771C152.091 321.148 165.24 326.522 182.032 326.522C203.578 326.522 223.38 318.777 236.529 303.13L216.093 281.478C205.954 291.119 195.181 296.492 181.399 296.492C155.576 295.86 138.942 276.104 138.942 249.552C138.942 222.999 156.368 202.611 182.666 202.611C248.569 202.611 230.034 326.364 318.591 326.364C362.949 326.364 394 293.331 394 249.394V116H362.316V186.964Z" fill="white"/>
</svg>
